<svg version="1.1" xmlns="http://www.w3.org/2000/svg" style="display: block;" viewBox="0 0 2048 2048" width="1024" height="1024" preserveAspectRatio="none">
<defs>
	<linearGradient id="Gradient1" gradientUnits="userSpaceOnUse" x1="1211.19" y1="1584.68" x2="781.888" y2="1718.27">
		<stop class="stop0" offset="0" stop-opacity="1" stop-color="rgb(69,36,29)"/>
		<stop class="stop1" offset="1" stop-opacity="1" stop-color="rgb(117,69,46)"/>
	</linearGradient>
</defs>
<path transform="translate(0,0)" fill="rgb(66,33,21)" d="M 683.694 318.925 C 733.637 311.619 786.915 310.952 836.941 304.639 C 873.068 300.08 889.211 300.9 924.504 305.875 L 987.513 314.806 C 1021.13 319.579 1027.77 320.193 1061.51 314.599 C 1092.61 309.441 1127.43 304.59 1158.76 301.478 C 1173.63 300.002 1206.1 304.626 1222.57 305.977 C 1269.07 309.658 1315.53 313.828 1361.94 318.489 C 1365.71 318.744 1369.59 319.062 1373.35 319.221 C 1367.83 341.306 1352.86 375.026 1345.3 398.272 L 1348.09 400.391 L 1437.61 477.046 C 1452.63 490.101 1475.74 511.706 1491.13 523.356 L 1495.24 526.09 C 1516.63 539.447 1537.92 552.935 1559.14 566.555 C 1567.07 571.635 1577.36 577.611 1584.86 582.86 L 1586.85 585.161 C 1613.34 628.718 1640.4 671.936 1668 714.803 C 1679.39 732.759 1693.04 753.092 1703.74 771.119 C 1697.86 786.941 1667.08 908.447 1663.7 910.958 L 1664.61 911.612 C 1681.16 917.844 1800.98 994.94 1805.96 992.781 C 1806.24 992.658 1806.45 992.409 1806.69 992.223 C 1808.54 1003.54 1793.2 1049.71 1788.97 1063.63 L 1759.83 1161.44 C 1752.34 1185.75 1742.66 1213.49 1737.39 1238.12 C 1715.86 1259.95 1695.96 1282.8 1675.24 1305.38 L 1576.87 1412.54 C 1561.18 1429.76 1533.84 1463.26 1517.72 1477.81 C 1511.93 1482.78 1500.39 1489.56 1493.65 1493.89 L 1452.36 1520.19 C 1409.69 1546.77 1368.17 1575.91 1325.38 1602.4 C 1318.25 1606.82 1309.94 1611.84 1303.29 1616.87 C 1302.12 1617.65 1300.94 1618.46 1299.76 1619.2 C 1246.97 1659.79 1190.29 1700.21 1136.56 1740.05 L 1074.87 1785.31 C 1062.54 1794.47 1046.04 1807.64 1033.52 1815.49 C 1030.25 1817.82 1026.89 1819.63 1023.41 1821.61 C 994.395 1802.68 962.193 1777.2 933.86 1756.54 L 749.061 1620.35 L 743.764 1616.73 C 729.585 1606.97 713.622 1597.44 699.075 1587.95 L 599.733 1523.58 C 580.671 1511.43 548.96 1492.9 532.301 1479.27 L 531.1 1478.58 C 519.287 1468.81 487.005 1430.95 475 1417.78 L 355.899 1287.31 C 351.06 1281.95 312.283 1241.14 311.328 1238.21 C 295.645 1190.01 281.99 1140.51 267.253 1091.88 C 257.829 1060.79 247.994 1028.73 239.768 997.341 C 240.481 994.611 241.408 991.964 242.296 989.285 C 250.379 961.247 262.282 932.608 271.105 904.601 C 300.502 811.282 339.342 722.577 380.489 633.787 C 384.881 629.658 398.996 621.682 404.736 618.097 C 422.162 607.212 442.176 596.885 458.961 585.242 L 461.144 585.979 L 464.13 582.717 C 493.723 564.04 523.742 543.986 553.778 526.335 C 554.375 525.371 556.968 523.705 558.057 522.914 C 583.386 501.38 608.121 479.063 633.259 457.283 C 655.293 438.193 678.172 419.671 699.966 400.377 L 703.054 397.947 L 674.119 319.59 L 683.694 318.925 z"/>
<path transform="translate(0,0)" fill="rgb(227,187,143)" d="M 1148.2 792.086 L 1148.98 791.636 L 1150.42 794.057 L 1234.36 922.109 C 1241.05 932.41 1264.57 970.5 1270.57 977.126 C 1271.24 987.169 1271.27 999.218 1270.94 1009.28 C 1268.41 1085.61 1272.16 1163.31 1268.9 1239.48 L 1268.93 1242.35 C 1263.54 1251.37 1242.45 1289.62 1237.49 1294.99 C 1225.52 1307.95 1201.08 1329.1 1187.03 1342.58 C 1179.35 1327.93 1168.18 1298.11 1161.27 1281.38 C 1150.93 1256.34 1137.63 1228.17 1128.31 1203.27 C 1140.63 1183.51 1144.02 1167.25 1147.5 1144.97 C 1150.53 1123.8 1157.54 1102.26 1159.81 1081.22 C 1163.47 1047.37 1158.61 1039.32 1129.53 1023.35 C 1106.47 1010.68 1078.38 992.447 1051.4 990.353 C 1054.02 990.018 1054.75 989.857 1057.28 989.133 C 1078.54 948.948 1096.09 902.924 1116.5 861.969 C 1127.46 839.958 1138.9 814.775 1148.2 792.086 z"/>
<path transform="translate(0,0)" fill="rgb(184,117,71)" d="M 1150.42 794.057 L 1234.36 922.109 C 1241.05 932.41 1264.57 970.5 1270.57 977.126 C 1271.24 987.169 1271.27 999.218 1270.94 1009.28 C 1268.41 1085.61 1272.16 1163.31 1268.9 1239.48 C 1267.1 1228.58 1260.94 1207.91 1257.82 1196.4 L 1233.97 1109.73 L 1174.44 887.692 C 1171.1 875.391 1150.37 802.461 1150.42 794.057 z"/>
<path transform="translate(0,0)" fill="rgb(66,33,21)" d="M 558.057 522.914 C 563.352 526.057 591.512 533.849 599.634 536.276 C 629.434 545.204 659.299 553.912 689.228 562.399 C 693.376 563.605 741.945 578.104 742.246 578.069 C 748.327 588.76 754.934 599.573 761.49 609.998 C 785.808 648.665 809.288 688.099 833.984 726.507 C 854.55 746.925 878.624 769.797 898.308 790.765 L 899.198 791.494 L 897.394 794.856 C 885.262 810.315 872.53 833.127 861.242 850.031 C 844.37 875.297 827.585 900.68 811.07 926.178 C 801.707 940.634 787.959 964.441 777.36 977.348 C 775.521 1019.82 778.031 1074.52 777.991 1118.56 L 777.9 1191.77 C 777.888 1204.04 777.369 1225.64 779.01 1237.11 L 778.957 1241.86 L 776.771 1240.94 C 766.798 1250.96 745.739 1264.45 734.007 1273.3 C 705.404 1294.9 673.891 1316.13 646.208 1338.69 C 639.28 1344.84 607.803 1384.76 600.552 1393.67 C 585.685 1411.71 570.931 1429.85 556.291 1448.07 C 547.93 1458.38 539.019 1467.86 532.301 1479.27 L 531.1 1478.58 C 519.287 1468.81 487.005 1430.95 475 1417.78 L 355.899 1287.31 C 351.06 1281.95 312.283 1241.14 311.328 1238.21 C 295.645 1190.01 281.99 1140.51 267.253 1091.88 C 257.829 1060.79 247.994 1028.73 239.768 997.341 C 240.481 994.611 241.408 991.964 242.296 989.285 C 250.379 961.247 262.282 932.608 271.105 904.601 C 300.502 811.282 339.342 722.577 380.489 633.787 C 384.881 629.658 398.996 621.682 404.736 618.097 C 422.162 607.212 442.176 596.885 458.961 585.242 L 461.144 585.979 L 464.13 582.717 C 493.723 564.04 523.742 543.986 553.778 526.335 C 554.375 525.371 556.968 523.705 558.057 522.914 z"/>
<path transform="translate(0,0)" fill="rgb(86,47,34)" d="M 656.457 728.418 C 668.26 726.87 679.984 725.917 691.762 724.546 C 737.458 719.229 784.085 725.394 829.889 726.974 L 833.984 726.507 C 854.55 746.925 878.624 769.797 898.308 790.765 L 899.198 791.494 L 897.394 794.856 C 885.262 810.315 872.53 833.127 861.242 850.031 C 844.37 875.297 827.585 900.68 811.07 926.178 C 801.707 940.634 787.959 964.441 777.36 977.348 L 775.355 976.227 C 774.999 977.045 774.644 977.863 774.288 978.681 C 752.912 988.512 707.409 1005.94 688.263 1013.49 L 597.172 1049.37 C 580.78 1055.73 554.059 1065.24 539.146 1072.93 C 535.322 1070.36 530.416 1049.3 528.743 1043.48 L 513.253 990.091 L 463.618 819.012 C 460.55 808.303 447.664 760.582 444.119 753.26 L 447.38 753.179 L 450.269 749.658 C 465.423 750.096 500.563 744.919 517.112 743.102 C 563.529 737.912 609.978 733.017 656.457 728.418 z"/>
<path transform="translate(0,0)" fill="rgb(184,117,71)" d="M 447.38 753.179 L 448.91 753.616 L 670.222 904.848 C 704.222 928.027 739.652 953.571 774.431 975.121 L 775.355 976.227 C 774.999 977.045 774.644 977.863 774.288 978.681 C 752.912 988.512 707.409 1005.94 688.263 1013.49 L 597.172 1049.37 C 580.78 1055.73 554.059 1065.24 539.146 1072.93 C 535.322 1070.36 530.416 1049.3 528.743 1043.48 L 513.253 990.091 L 463.618 819.012 C 460.55 808.303 447.664 760.582 444.119 753.26 L 447.38 753.179 z"/>
<path transform="translate(0,0)" fill="rgb(117,67,45)" d="M 448.91 753.616 C 482.755 756.141 528.932 765.774 563.907 771.574 L 621.66 781.375 C 629.93 782.814 645.659 785.244 653.253 787.533 C 674.469 811.232 692.943 840.121 713.985 864.327 C 716.333 867.028 727.492 881.4 728.151 883.122 C 733.81 897.904 774.197 965.633 774.431 975.121 C 739.652 953.571 704.222 928.027 670.222 904.848 L 448.91 753.616 z"/>
<path transform="translate(0,0)" fill="rgb(5,4,3)" d="M 656.457 728.418 C 668.26 726.87 679.984 725.917 691.762 724.546 C 737.458 719.229 784.085 725.394 829.889 726.974 C 833.741 728.801 834.016 728.681 835.714 733.852 C 839.517 745.433 842.383 757.858 845.387 769.726 C 850.45 789.517 855.381 809.341 860.177 829.199 C 831.572 817.121 825.121 807.714 791.614 814.262 C 761.677 820.113 735.74 799.878 711.736 783.976 C 692.309 784.283 673.022 785.745 653.647 786.448 C 653.7 776.201 654.306 736.219 656.457 728.418 z"/>
<path transform="translate(0,0)" fill="rgb(86,47,34)" d="M 765.137 755.31 L 765.711 755.804 C 763.543 763.547 758.312 763.435 759.79 774.995 C 760.535 780.911 763.764 786.229 768.669 789.619 C 778.091 796.115 790.114 791.941 796.016 782.559 C 799.875 776.426 798.02 768.074 796.416 761.405 C 812.29 771.727 820.387 773.634 812.374 792.645 C 791.672 824.189 744.777 813.253 740.243 776.014 C 739.705 771.592 740.874 765.613 741.581 761.109 C 748.959 758.755 757.498 757.033 765.137 755.31 z"/>
<path transform="translate(0,0)" fill="rgb(141,77,44)" d="M 558.057 522.914 C 563.352 526.057 591.512 533.849 599.634 536.276 C 629.434 545.204 659.299 553.912 689.228 562.399 C 693.376 563.605 741.945 578.104 742.246 578.069 C 748.327 588.76 754.934 599.573 761.49 609.998 C 785.808 648.665 809.288 688.099 833.984 726.507 L 829.889 726.974 C 784.085 725.394 737.458 719.229 691.762 724.546 C 679.984 725.917 668.26 726.87 656.457 728.418 C 609.978 733.017 563.529 737.912 517.112 743.102 C 500.563 744.919 465.423 750.096 450.269 749.658 L 447.38 753.179 L 444.119 753.26 C 440.951 756.877 387.856 899.451 383.537 912.191 C 371.311 867.16 356.205 814.822 345.84 769.826 C 349.131 761.53 374.743 723.532 381.02 713.508 C 407.457 671.295 436.206 629.078 461.144 585.979 L 464.13 582.717 C 493.723 564.04 523.742 543.986 553.778 526.335 C 554.375 525.371 556.968 523.705 558.057 522.914 z"/>
<path transform="translate(0,0)" fill="rgb(184,117,71)" d="M 553.778 526.335 C 552.949 531.007 531.167 573.739 527.75 580.611 L 465.573 707.651 C 459.346 720.658 449.158 739.259 443.889 751.757 C 425.556 755.688 405.6 758.82 387.014 762.113 C 374.545 764.322 357.958 768.276 345.84 769.826 C 349.131 761.53 374.743 723.532 381.02 713.508 C 407.457 671.295 436.206 629.078 461.144 585.979 L 464.13 582.717 C 493.723 564.04 523.742 543.986 553.778 526.335 z"/>
<path transform="translate(0,0)" fill="rgb(184,117,71)" d="M 450.269 749.658 L 450.399 748.941 C 456.276 744.347 470.749 736.075 477.537 732.072 L 525.934 703.85 L 657.366 627.226 C 682.75 612.494 717.993 593.331 741.794 576.902 C 734.647 593.607 715.481 624.358 705.785 640.951 C 688.967 669.894 672.523 699.052 656.457 728.418 C 609.978 733.017 563.529 737.912 517.112 743.102 C 500.563 744.919 465.423 750.096 450.269 749.658 z"/>
<path transform="translate(0,0)" fill="rgb(117,67,45)" d="M 458.961 585.242 L 461.144 585.979 C 436.206 629.078 407.457 671.295 381.02 713.508 C 374.743 723.532 349.131 761.53 345.84 769.826 C 356.205 814.822 371.311 867.16 383.537 912.191 C 387.856 899.451 440.951 756.877 444.119 753.26 C 447.664 760.582 460.55 808.303 463.618 819.012 L 513.253 990.091 L 528.743 1043.48 C 530.416 1049.3 535.322 1070.36 539.146 1072.93 L 539.498 1073.88 L 535.912 1074.24 C 528.088 1078.93 517.159 1087.25 509.523 1092.73 C 493.283 1104.33 477.135 1116.06 461.082 1127.91 C 425.613 1154.05 389.982 1179.97 354.19 1205.67 C 340.322 1215.69 326.273 1226.69 312.362 1236.34 C 313.275 1225.21 317.445 1208.5 320.028 1197.27 L 333.939 1136.47 L 383.544 911.531 C 367.652 919.665 249.064 991.914 243.612 991.833 L 242.296 989.285 C 250.379 961.247 262.282 932.608 271.105 904.601 C 300.502 811.282 339.342 722.577 380.489 633.787 C 384.881 629.658 398.996 621.682 404.736 618.097 C 422.162 607.212 442.176 596.885 458.961 585.242 z"/>
<path transform="translate(0,0)" fill="rgb(141,77,44)" d="M 775.355 976.227 L 777.36 977.348 C 775.521 1019.82 778.031 1074.52 777.991 1118.56 L 777.9 1191.77 C 777.888 1204.04 777.369 1225.64 779.01 1237.11 L 778.957 1241.86 L 776.771 1240.94 C 766.798 1250.96 745.739 1264.45 734.007 1273.3 C 705.404 1294.9 673.891 1316.13 646.208 1338.69 C 636.582 1318.88 622.772 1282.63 614.175 1261.53 L 567.669 1148.71 C 559.463 1128.39 547.339 1094.05 537.097 1075.99 L 535.912 1074.24 L 539.498 1073.88 L 539.146 1072.93 C 554.059 1065.24 580.78 1055.73 597.172 1049.37 L 688.263 1013.49 C 707.409 1005.94 752.912 988.512 774.288 978.681 C 774.644 977.863 774.999 977.045 775.355 976.227 z"/>
<path transform="translate(0,0)" fill="rgb(86,47,34)" d="M 535.912 1074.24 L 539.498 1073.88 C 560.032 1089.62 584.556 1105.78 606.039 1120.8 L 717.631 1199.26 C 729.171 1207.45 740.797 1215.52 752.507 1223.47 C 757.857 1227.09 772.424 1236.72 776.771 1240.94 C 766.798 1250.96 745.739 1264.45 734.007 1273.3 C 705.404 1294.9 673.891 1316.13 646.208 1338.69 C 636.582 1318.88 622.772 1282.63 614.175 1261.53 L 567.669 1148.71 C 559.463 1128.39 547.339 1094.05 537.097 1075.99 L 535.912 1074.24 z"/>
<path transform="translate(0,0)" fill="rgb(117,67,45)" d="M 537.097 1075.99 C 547.339 1094.05 559.463 1128.39 567.669 1148.71 L 614.175 1261.53 C 622.772 1282.63 636.582 1318.88 646.208 1338.69 C 639.28 1344.84 607.803 1384.76 600.552 1393.67 C 585.685 1411.71 570.931 1429.85 556.291 1448.07 C 547.93 1458.38 539.019 1467.86 532.301 1479.27 L 531.1 1478.58 C 530.135 1456.56 530.956 1430.57 531.387 1408.34 L 532.674 1331.18 L 535.237 1160.95 C 535.687 1132.6 536.94 1104.35 537.097 1075.99 z"/>
<path transform="translate(0,0)" fill="rgb(141,77,44)" d="M 683.694 318.925 C 733.637 311.619 786.915 310.952 836.941 304.639 C 873.068 300.08 889.211 300.9 924.504 305.875 L 987.513 314.806 C 1021.13 319.579 1027.77 320.193 1061.51 314.599 C 1092.61 309.441 1127.43 304.59 1158.76 301.478 C 1173.63 300.002 1206.1 304.626 1222.57 305.977 C 1269.07 309.658 1315.53 313.828 1361.94 318.489 C 1365.71 318.744 1369.59 319.062 1373.35 319.221 C 1367.83 341.306 1352.86 375.026 1345.3 398.272 L 1348.09 400.391 L 1437.61 477.046 C 1452.63 490.101 1475.74 511.706 1491.13 523.356 C 1474 529.729 1452.01 535.509 1434.12 540.689 L 1349.18 565.517 C 1336.12 569.321 1318.82 573.837 1306.35 578.391 C 1296.59 591.886 1285.09 612.408 1276.11 627.002 C 1255.26 660.94 1234.22 694.764 1213 728.471 L 1212.37 729.291 C 1197.22 742.062 1162.78 776.635 1148.98 791.636 L 1148.2 792.086 C 1138.9 814.775 1127.46 839.958 1116.5 861.969 C 1096.09 902.924 1078.54 948.948 1057.28 989.133 C 1054.75 989.857 1054.02 990.018 1051.4 990.353 C 1034.99 990.452 1018.58 990.382 1002.17 990.143 C 998.46 989.763 994.572 989.795 990.827 989.717 C 984.555 974.388 974.053 953.489 966.832 937.959 L 923.104 843.591 C 919.104 835.029 901.12 798.038 899.919 791.339 L 899.198 791.494 L 898.308 790.765 C 878.624 769.797 854.55 746.925 833.984 726.507 C 809.288 688.099 785.808 648.665 761.49 609.998 C 754.934 599.573 748.327 588.76 742.246 578.069 C 741.945 578.104 693.376 563.605 689.228 562.399 C 659.299 553.912 629.434 545.204 599.634 536.276 C 591.512 533.849 563.352 526.057 558.057 522.914 C 583.386 501.38 608.121 479.063 633.259 457.283 C 655.293 438.193 678.172 419.671 699.966 400.377 L 703.054 397.947 L 674.119 319.59 L 683.694 318.925 z"/>
<path transform="translate(0,0)" fill="rgb(141,77,44)" d="M 683.694 318.925 C 733.637 311.619 786.915 310.952 836.941 304.639 C 873.068 300.08 889.211 300.9 924.504 305.875 L 987.513 314.806 C 1021.13 319.579 1027.77 320.193 1061.51 314.599 C 1092.61 309.441 1127.43 304.59 1158.76 301.478 C 1173.63 300.002 1206.1 304.626 1222.57 305.977 C 1269.07 309.658 1315.53 313.828 1361.94 318.489 C 1357.92 323.343 1331.93 325.432 1324.52 326.465 L 1258.62 335.396 L 1072.87 361.129 C 1062.82 362.517 1033.33 365.696 1024.91 367.662 L 1024.2 367.901 C 1008.51 382.997 900.31 490.587 896.9 501.892 L 894.307 501.526 C 870.17 511.31 830.517 533.331 805.905 545.675 L 762.053 567.645 C 757.281 570.066 745.869 575.517 742.246 578.069 C 741.945 578.104 693.376 563.605 689.228 562.399 C 659.299 553.912 629.434 545.204 599.634 536.276 C 591.512 533.849 563.352 526.057 558.057 522.914 C 583.386 501.38 608.121 479.063 633.259 457.283 C 655.293 438.193 678.172 419.671 699.966 400.377 L 703.054 397.947 L 674.119 319.59 L 683.694 318.925 z"/>
<path transform="translate(0,0)" fill="rgb(184,117,71)" d="M 703.054 397.947 C 721.049 408.831 741.607 419.25 760.285 429.197 L 843.104 473.349 C 850.758 477.401 890.178 497.296 894.307 501.526 C 870.17 511.31 830.517 533.331 805.905 545.675 L 762.053 567.645 C 757.281 570.066 745.869 575.517 742.246 578.069 C 741.945 578.104 693.376 563.605 689.228 562.399 C 659.299 553.912 629.434 545.204 599.634 536.276 C 591.512 533.849 563.352 526.057 558.057 522.914 C 583.386 501.38 608.121 479.063 633.259 457.283 C 655.293 438.193 678.172 419.671 699.966 400.377 L 703.054 397.947 z"/>
<path transform="translate(0,0)" fill="rgb(184,117,71)" d="M 683.694 318.925 C 733.637 311.619 786.915 310.952 836.941 304.639 C 873.068 300.08 889.211 300.9 924.504 305.875 L 987.513 314.806 C 1021.13 319.579 1027.77 320.193 1061.51 314.599 C 1092.61 309.441 1127.43 304.59 1158.76 301.478 C 1173.63 300.002 1206.1 304.626 1222.57 305.977 C 1269.07 309.658 1315.53 313.828 1361.94 318.489 C 1357.92 323.343 1331.93 325.432 1324.52 326.465 L 1258.62 335.396 L 1072.87 361.129 C 1062.82 362.517 1033.33 365.696 1024.91 367.662 L 1024.2 367.901 C 986.349 360.663 694.205 325.424 683.694 318.925 z"/>
<path transform="translate(0,0)" fill="rgb(141,77,44)" d="M 1361.94 318.489 C 1365.71 318.744 1369.59 319.062 1373.35 319.221 C 1367.83 341.306 1352.86 375.026 1345.3 398.272 L 1348.09 400.391 L 1437.61 477.046 C 1452.63 490.101 1475.74 511.706 1491.13 523.356 C 1474 529.729 1452.01 535.509 1434.12 540.689 L 1349.18 565.517 C 1336.12 569.321 1318.82 573.837 1306.35 578.391 C 1300.6 574.257 1259.92 554.708 1251.5 550.427 C 1229.94 539.282 1208.3 528.287 1186.59 517.443 C 1177.82 513.034 1162.58 504.857 1154.1 501.692 L 1153.25 502.28 L 1152.27 502.007 C 1150.04 494.388 1038.97 382.433 1024.91 367.662 C 1033.33 365.696 1062.82 362.517 1072.87 361.129 L 1258.62 335.396 L 1324.52 326.465 C 1331.93 325.432 1357.92 323.343 1361.94 318.489 z"/>
<path transform="translate(0,0)" fill="rgb(184,117,71)" d="M 1154.1 501.692 C 1159.2 497.132 1214.78 468.004 1225.59 462.472 C 1265.6 441.994 1305.63 418.883 1345.3 398.272 L 1348.09 400.391 L 1437.61 477.046 C 1452.63 490.101 1475.74 511.706 1491.13 523.356 C 1474 529.729 1452.01 535.509 1434.12 540.689 L 1349.18 565.517 C 1336.12 569.321 1318.82 573.837 1306.35 578.391 C 1300.6 574.257 1259.92 554.708 1251.5 550.427 C 1229.94 539.282 1208.3 528.287 1186.59 517.443 C 1177.82 513.034 1162.58 504.857 1154.1 501.692 z"/>
<path transform="translate(0,0)" fill="rgb(245,225,192)" d="M 899.919 791.339 C 965.826 790.781 1031.35 787.98 1097.22 790.859 C 1109.22 791.384 1121.6 790.679 1133.56 791.16 C 1138.43 791.596 1143.32 791.905 1148.2 792.086 C 1138.9 814.775 1127.46 839.958 1116.5 861.969 C 1096.09 902.924 1078.54 948.948 1057.28 989.133 C 1054.75 989.857 1054.02 990.018 1051.4 990.353 C 1034.99 990.452 1018.58 990.382 1002.17 990.143 C 998.46 989.763 994.572 989.795 990.827 989.717 C 984.555 974.388 974.053 953.489 966.832 937.959 L 923.104 843.591 C 919.104 835.029 901.12 798.038 899.919 791.339 z"/>
<path transform="translate(0,0)" fill="rgb(227,187,143)" d="M 1154.1 501.692 C 1162.58 504.857 1177.82 513.034 1186.59 517.443 C 1208.3 528.287 1229.94 539.282 1251.5 550.427 C 1259.92 554.708 1300.6 574.257 1306.35 578.391 C 1296.59 591.886 1285.09 612.408 1276.11 627.002 C 1255.26 660.94 1234.22 694.764 1213 728.471 L 1212.37 729.291 C 1197.22 742.062 1162.78 776.635 1148.98 791.636 L 1148.2 792.086 C 1143.32 791.905 1138.43 791.596 1133.56 791.16 C 1138.08 790.873 1144.18 791.09 1148.82 791.117 C 1135.98 768.49 1120.92 746.188 1107.99 723.163 C 1111.56 698.503 1119.06 667.516 1124.26 642.816 L 1153.25 502.28 L 1154.1 501.692 z"/>
<path transform="translate(0,0)" fill="rgb(227,187,143)" d="M 894.307 501.526 C 898.062 517.909 900.911 534.513 904.391 550.972 C 911.758 584.348 918.884 617.775 925.769 651.253 C 929.623 670.053 935.838 704.797 940.73 722.115 C 931.906 737.133 922.92 752.055 913.772 766.878 C 910.227 772.682 902.446 786.045 898.308 790.765 C 878.624 769.797 854.55 746.925 833.984 726.507 C 809.288 688.099 785.808 648.665 761.49 609.998 C 754.934 599.573 748.327 588.76 742.246 578.069 C 745.869 575.517 757.281 570.066 762.053 567.645 L 805.905 545.675 C 830.517 533.331 870.17 511.31 894.307 501.526 z"/>
<path transform="translate(0,0)" fill="rgb(117,67,45)" d="M 1024.2 367.901 L 1024.91 367.662 C 1038.97 382.433 1150.04 494.388 1152.27 502.007 C 1130.05 515.261 1103.7 534.63 1081.22 548.975 C 1068.31 557.215 1035.47 578.338 1024.62 587.341 C 982.631 559.538 937.819 530.73 896.9 501.892 C 900.31 490.587 1008.51 382.997 1024.2 367.901 z"/>
<path transform="translate(0,0)" fill="rgb(184,117,71)" d="M 894.307 501.526 L 896.9 501.892 C 937.819 530.73 982.631 559.538 1024.62 587.341 C 1035.47 578.338 1068.31 557.215 1081.22 548.975 C 1103.7 534.63 1130.05 515.261 1152.27 502.007 L 1153.25 502.28 L 1124.26 642.816 C 1119.06 667.516 1111.56 698.503 1107.99 723.163 C 1080.88 682.397 1049.65 630.032 1024.21 587.212 C 1002.54 621.592 981.327 656.251 960.565 691.183 C 954.392 701.456 946.638 711.883 940.73 722.115 C 935.838 704.797 929.623 670.053 925.769 651.253 C 918.884 617.775 911.758 584.348 904.391 550.972 C 900.911 534.513 898.062 517.909 894.307 501.526 z"/>
<path transform="translate(0,0)" fill="rgb(184,117,71)" d="M 1491.13 523.356 L 1495.24 526.09 C 1516.63 539.447 1537.92 552.935 1559.14 566.555 C 1567.07 571.635 1577.36 577.611 1584.86 582.86 L 1586.85 585.161 C 1613.34 628.718 1640.4 671.936 1668 714.803 C 1679.39 732.759 1693.04 753.092 1703.74 771.119 C 1674.99 763.356 1634.6 757.182 1604.43 751.74 L 1603.59 751.559 L 1603.04 752.344 C 1581.25 839.102 1551.99 925.643 1528.64 1012.13 C 1525.95 1022.08 1514 1066.19 1509.95 1072.38 C 1485.46 1063.38 1275.68 981.01 1271.73 977.555 L 1270.57 977.126 C 1264.57 970.5 1241.05 932.41 1234.36 922.109 L 1150.42 794.057 L 1148.98 791.636 C 1162.78 776.635 1197.22 742.062 1212.37 729.291 L 1213 728.471 C 1234.22 694.764 1255.26 660.94 1276.11 627.002 C 1285.09 612.408 1296.59 591.886 1306.35 578.391 C 1318.82 573.837 1336.12 569.321 1349.18 565.517 L 1434.12 540.689 C 1452.01 535.509 1474 529.729 1491.13 523.356 z"/>
<path transform="translate(0,0)" fill="rgb(141,77,44)" d="M 1491.13 523.356 L 1495.24 526.09 C 1516.63 539.447 1537.92 552.935 1559.14 566.555 C 1567.07 571.635 1577.36 577.611 1584.86 582.86 L 1586.85 585.161 C 1613.34 628.718 1640.4 671.936 1668 714.803 C 1679.39 732.759 1693.04 753.092 1703.74 771.119 C 1674.99 763.356 1634.6 757.182 1604.43 751.74 L 1603.59 751.559 C 1600.98 751.936 1600.84 751.593 1598.29 750.665 C 1589.31 748.876 1575.45 748.042 1566.02 747.023 L 1517.4 741.597 C 1475.71 737.314 1434.56 732.268 1392.77 728.749 L 1391.91 728.167 C 1346.46 723.701 1306.56 720.107 1260.77 724.712 C 1244.98 726.301 1228.91 725.689 1213 728.471 C 1234.22 694.764 1255.26 660.94 1276.11 627.002 C 1285.09 612.408 1296.59 591.886 1306.35 578.391 C 1318.82 573.837 1336.12 569.321 1349.18 565.517 L 1434.12 540.689 C 1452.01 535.509 1474 529.729 1491.13 523.356 z"/>
<path transform="translate(0,0)" fill="rgb(184,117,71)" d="M 1495.24 526.09 C 1516.63 539.447 1537.92 552.935 1559.14 566.555 C 1567.07 571.635 1577.36 577.611 1584.86 582.86 L 1586.85 585.161 C 1613.34 628.718 1640.4 671.936 1668 714.803 C 1679.39 732.759 1693.04 753.092 1703.74 771.119 C 1674.99 763.356 1634.6 757.182 1604.43 751.74 L 1603.59 751.559 C 1600.65 742.97 1590.98 725.076 1586.61 716.128 L 1526.97 594.148 C 1521.9 583.838 1495.56 533.759 1495.24 526.09 z"/>
<path transform="translate(0,0)" fill="rgb(184,117,71)" d="M 1305.89 577.271 C 1333.29 594.007 1597.95 746.701 1599.99 749.868 L 1598.29 750.665 C 1589.31 748.876 1575.45 748.042 1566.02 747.023 L 1517.4 741.597 C 1475.71 737.314 1434.56 732.268 1392.77 728.749 L 1391.91 728.167 C 1367.35 684.933 1343.04 641.552 1317.99 598.581 C 1313.99 591.716 1309.59 584.272 1305.89 577.271 z"/>
<path transform="translate(0,0)" fill="rgb(86,47,34)" d="M 1213 728.471 C 1228.91 725.689 1244.98 726.301 1260.77 724.712 C 1306.56 720.107 1346.46 723.701 1391.91 728.167 L 1392.77 728.749 C 1392.98 739.267 1395.41 780.392 1394.46 786.918 C 1388.7 793.852 1382.72 801.706 1377.31 809.218 C 1358.76 835.01 1335.25 859.762 1318.59 886.671 C 1308.97 902.2 1302.04 920.309 1292.7 936.094 C 1286.62 947.964 1276.92 963.35 1273.12 975.796 L 1271.73 977.555 L 1270.57 977.126 C 1264.57 970.5 1241.05 932.41 1234.36 922.109 L 1150.42 794.057 L 1148.98 791.636 C 1162.78 776.635 1197.22 742.062 1212.37 729.291 L 1213 728.471 z"/>
<path transform="translate(0,0)" fill="rgb(5,4,3)" d="M 1213 728.471 C 1228.91 725.689 1244.98 726.301 1260.77 724.712 C 1306.56 720.107 1346.46 723.701 1391.91 728.167 L 1392.77 728.749 C 1392.98 739.267 1395.41 780.392 1394.46 786.918 C 1376.65 785.458 1354.44 784.124 1336.76 783.889 C 1308.88 800.67 1292.91 818.693 1257.88 814.394 C 1251.99 813.671 1230.45 811.336 1226.4 812.469 C 1214.41 815.817 1201.13 824.134 1188.24 829.165 C 1194.26 799.606 1208.49 756.552 1212.37 729.291 L 1213 728.471 z"/>
<path transform="translate(0,0)" fill="rgb(86,47,34)" d="M 1282.5 755.348 C 1291.49 756.339 1299.12 759.04 1307.53 762.186 C 1308 766.755 1308.4 773.913 1307.64 778.439 C 1305.94 788.935 1300.08 798.301 1291.38 804.417 C 1282.72 810.476 1272 812.807 1261.61 810.888 C 1249.66 808.598 1243.18 802.494 1236.7 793.045 C 1227.06 774.095 1235.96 771.416 1251.29 761.439 C 1249.3 772.451 1248.48 783.365 1259.74 789.85 C 1264.72 792.717 1270.68 793.348 1276.15 791.586 C 1281.18 790.003 1285.29 786.343 1287.45 781.53 C 1293.3 768.493 1285.02 764.827 1282.5 755.348 z"/>
<path transform="translate(0,0)" fill="rgb(117,67,45)" d="M 1392.77 728.749 C 1434.56 732.268 1475.71 737.314 1517.4 741.597 L 1566.02 747.023 C 1575.45 748.042 1589.31 748.876 1598.29 750.665 C 1600.84 751.593 1600.98 751.936 1603.59 751.559 L 1603.04 752.344 L 1598.92 753.409 C 1571.38 773.399 1543.19 792.11 1515.09 811.296 L 1384.24 900.756 L 1310.19 951.257 C 1302.42 956.542 1280.26 972.23 1273.12 975.796 C 1276.92 963.35 1286.62 947.964 1292.7 936.094 C 1302.04 920.309 1308.97 902.2 1318.59 886.671 C 1335.25 859.762 1358.76 835.01 1377.31 809.218 C 1382.72 801.706 1388.7 793.852 1394.46 786.918 C 1395.41 780.392 1392.98 739.267 1392.77 728.749 z"/>
<path transform="translate(0,0)" fill="rgb(86,47,34)" d="M 1392.77 728.749 C 1434.56 732.268 1475.71 737.314 1517.4 741.597 L 1566.02 747.023 C 1575.45 748.042 1589.31 748.876 1598.29 750.665 C 1600.84 751.593 1600.98 751.936 1603.59 751.559 L 1603.04 752.344 L 1598.92 753.409 C 1578.57 753.52 1554.04 759.264 1533.46 762.899 L 1449.88 777.236 C 1433.03 780.235 1411.04 784.865 1394.46 786.918 C 1395.41 780.392 1392.98 739.267 1392.77 728.749 z"/>
<path transform="translate(0,0)" fill="rgb(117,67,45)" d="M 1603.59 751.559 L 1604.43 751.74 C 1634.6 757.182 1674.99 763.356 1703.74 771.119 C 1697.86 786.941 1667.08 908.447 1663.7 910.958 L 1664.61 911.612 C 1681.16 917.844 1800.98 994.94 1805.96 992.781 C 1806.24 992.658 1806.45 992.409 1806.69 992.223 C 1808.54 1003.54 1793.2 1049.71 1788.97 1063.63 L 1759.83 1161.44 C 1752.34 1185.75 1742.66 1213.49 1737.39 1238.12 C 1715.86 1259.95 1695.96 1282.8 1675.24 1305.38 L 1576.87 1412.54 C 1561.18 1429.76 1533.84 1463.26 1517.72 1477.81 C 1511.7 1473.16 1489.4 1444.25 1483.14 1436.76 C 1455.89 1404.17 1429.52 1370.4 1401.83 1338.15 C 1423.71 1290.06 1444.32 1235.61 1464.68 1186.5 L 1492.52 1119.03 C 1496.08 1110.51 1509.9 1081.41 1508.79 1074.02 L 1509.95 1072.38 C 1514 1066.19 1525.95 1022.08 1528.64 1012.13 C 1551.99 925.643 1581.25 839.102 1603.04 752.344 L 1603.59 751.559 z"/>
<path transform="translate(0,0)" fill="rgb(66,33,21)" d="M 1664.61 911.612 C 1681.16 917.844 1800.98 994.94 1805.96 992.781 C 1806.24 992.658 1806.45 992.409 1806.69 992.223 C 1808.54 1003.54 1793.2 1049.71 1788.97 1063.63 L 1759.83 1161.44 C 1752.34 1185.75 1742.66 1213.49 1737.39 1238.12 C 1715.86 1259.95 1695.96 1282.8 1675.24 1305.38 L 1576.87 1412.54 C 1561.18 1429.76 1533.84 1463.26 1517.72 1477.81 C 1518.44 1445.95 1516.35 1412.24 1516.31 1380.15 C 1516.16 1278.07 1511.55 1174.82 1510.99 1072.88 C 1576.54 1121.33 1642.59 1169.11 1709.12 1216.22 C 1715.29 1220.5 1730.27 1233.18 1735.31 1235.12 C 1736.75 1230.54 1715.9 1144.58 1712.89 1131.04 L 1664.61 911.612 z"/>
<path transform="translate(0,0)" fill="rgb(141,77,44)" d="M 1604.43 751.74 C 1634.6 757.182 1674.99 763.356 1703.74 771.119 C 1697.86 786.941 1667.08 908.447 1663.7 910.958 C 1652.05 875.512 1637.45 841.156 1624.6 806.087 C 1618.02 788.121 1609.83 770.131 1604.43 751.74 z"/>
<path transform="translate(0,0)" fill="rgb(227,187,143)" d="M 899.919 791.339 C 901.12 798.038 919.104 835.029 923.104 843.591 L 966.832 937.959 C 974.053 953.489 984.555 974.388 990.827 989.717 C 994.572 989.795 998.46 989.763 1002.17 990.143 C 1018.58 990.382 1034.99 990.452 1051.4 990.353 C 1078.38 992.447 1106.47 1010.68 1129.53 1023.35 C 1158.61 1039.32 1163.47 1047.37 1159.81 1081.22 C 1157.54 1102.26 1150.53 1123.8 1147.5 1144.97 C 1144.02 1167.25 1140.63 1183.51 1128.31 1203.27 C 1104.98 1220.29 1082.29 1230.45 1056.69 1243.22 C 1046.72 1248.19 1034.51 1255.22 1024.87 1259.6 L 1023.18 1260.03 C 995.331 1243.98 941.18 1220.39 919.839 1202.8 C 914.827 1216.57 908.403 1229.86 902.823 1243.4 C 889.277 1276.28 874.068 1309.5 861.859 1342.82 C 852.123 1335.36 815.483 1301.16 808.214 1291.94 C 803.76 1286.29 783.7 1250.2 778.957 1241.86 L 779.01 1237.11 C 777.369 1225.64 777.888 1204.04 777.9 1191.77 L 777.991 1118.56 C 778.031 1074.52 775.521 1019.82 777.36 977.348 C 787.959 964.441 801.707 940.634 811.07 926.178 C 827.585 900.68 844.37 875.297 861.242 850.031 C 872.53 833.127 885.262 810.315 897.394 794.856 L 899.198 791.494 L 899.919 791.339 z"/>
<path transform="translate(0,0)" fill="rgb(5,4,3)" d="M 1051.4 990.353 C 1078.38 992.447 1106.47 1010.68 1129.53 1023.35 C 1158.61 1039.32 1163.47 1047.37 1159.81 1081.22 C 1157.54 1102.26 1150.53 1123.8 1147.5 1144.97 C 1144.02 1167.25 1140.63 1183.51 1128.31 1203.27 C 1104.98 1220.29 1082.29 1230.45 1056.69 1243.22 C 1046.72 1248.19 1034.51 1255.22 1024.87 1259.6 L 1023.18 1260.03 C 995.331 1243.98 941.18 1220.39 919.839 1202.8 C 908.432 1185.04 903.649 1166.33 900.659 1145.78 C 896.138 1122.84 890.353 1099.81 888.044 1076.69 C 884.883 1045.03 892.182 1038.62 917.728 1024.08 C 944.731 1008.71 970.192 992.157 1002.17 990.143 C 1018.58 990.382 1034.99 990.452 1051.4 990.353 z"/>
<path transform="translate(0,0)" fill="rgb(45,44,45)" d="M 1051.4 990.353 C 1078.38 992.447 1106.47 1010.68 1129.53 1023.35 C 1158.61 1039.32 1163.47 1047.37 1159.81 1081.22 C 1157.54 1102.26 1150.53 1123.8 1147.5 1144.97 C 1145.98 1140.88 1143.4 1128.65 1142.07 1123.74 C 1137.98 1108.59 1133.83 1099.86 1126.44 1086.21 C 1114.09 1079.85 1107.82 1076.44 1095.04 1071.97 C 1067.66 1062.42 1054.66 1064.46 1026.93 1066.04 C 1018.95 1066.5 1003.44 1064.4 994.255 1064.55 C 973.22 1064.93 952.165 1070.8 933.204 1079.7 C 908.224 1091.41 908.231 1123.22 900.659 1145.78 C 896.138 1122.84 890.353 1099.81 888.044 1076.69 C 884.883 1045.03 892.182 1038.62 917.728 1024.08 C 944.731 1008.71 970.192 992.157 1002.17 990.143 C 1018.58 990.382 1034.99 990.452 1051.4 990.353 z"/>
<path transform="translate(0,0)" fill="rgb(184,117,71)" d="M 777.36 977.348 C 787.959 964.441 801.707 940.634 811.07 926.178 C 827.585 900.68 844.37 875.297 861.242 850.031 C 872.53 833.127 885.262 810.315 897.394 794.856 C 896.709 803.761 888.978 830.322 886.257 840.596 L 860.986 934.813 C 834.33 1035.76 807.004 1136.53 779.01 1237.11 C 777.369 1225.64 777.888 1204.04 777.9 1191.77 L 777.991 1118.56 C 778.031 1074.52 775.521 1019.82 777.36 977.348 z"/>
<path transform="translate(0,0)" fill="rgb(86,47,34)" d="M 1270.57 977.126 L 1271.73 977.555 C 1275.68 981.01 1485.46 1063.38 1509.95 1072.38 L 1508.79 1074.02 C 1509.9 1081.41 1496.08 1110.51 1492.52 1119.03 L 1464.68 1186.5 C 1444.32 1235.61 1423.71 1290.06 1401.83 1338.15 C 1429.52 1370.4 1455.89 1404.17 1483.14 1436.76 C 1489.4 1444.25 1511.7 1473.16 1517.72 1477.81 C 1511.93 1482.78 1500.39 1489.56 1493.65 1493.89 L 1452.36 1520.19 C 1409.69 1546.77 1368.17 1575.91 1325.38 1602.4 C 1318.25 1606.82 1309.94 1611.84 1303.29 1616.87 C 1302.12 1617.65 1300.94 1618.46 1299.76 1619.2 C 1297.01 1615.26 1286.43 1605.11 1282.53 1601.11 C 1267.24 1585.4 1251.86 1570.55 1235.65 1555.81 C 1223.05 1544.35 1210.75 1530.24 1197.23 1519.5 C 1191.83 1511.2 1179.36 1497.1 1172.65 1489.12 C 1157.81 1471.29 1142.67 1453.71 1127.23 1436.39 L 1239.86 1386.63 C 1251.72 1381.47 1268.9 1372.43 1280.27 1368.44 C 1293.45 1363.82 1314.15 1359.37 1328.07 1356.02 C 1352.56 1350.2 1377.01 1344.22 1401.42 1338.08 C 1389.35 1328.08 1374.85 1318.26 1362.27 1308.68 C 1332.26 1285.8 1300.78 1264.01 1270.93 1241.03 L 1268.93 1242.35 L 1268.9 1239.48 C 1272.16 1163.31 1268.41 1085.61 1270.94 1009.28 C 1271.27 999.218 1271.24 987.169 1270.57 977.126 z"/>
<path transform="translate(0,0)" fill="rgb(141,77,44)" d="M 1270.57 977.126 L 1271.73 977.555 C 1275.68 981.01 1485.46 1063.38 1509.95 1072.38 L 1508.79 1074.02 L 1270.93 1241.03 L 1268.93 1242.35 L 1268.9 1239.48 C 1272.16 1163.31 1268.41 1085.61 1270.94 1009.28 C 1271.27 999.218 1271.24 987.169 1270.57 977.126 z"/>
<path transform="translate(0,0)" fill="rgb(66,33,21)" d="M 1401.83 1338.15 C 1429.52 1370.4 1455.89 1404.17 1483.14 1436.76 C 1489.4 1444.25 1511.7 1473.16 1517.72 1477.81 C 1511.93 1482.78 1500.39 1489.56 1493.65 1493.89 L 1452.36 1520.19 C 1409.69 1546.77 1368.17 1575.91 1325.38 1602.4 C 1318.25 1606.82 1309.94 1611.84 1303.29 1616.87 C 1309.6 1592.06 1322.83 1558.74 1331.84 1534.1 L 1373.23 1419.02 C 1382.43 1393.65 1394.22 1363.6 1401.83 1338.15 z"/>
<path transform="translate(0,0)" fill="url(#Gradient1)" d="M 850.341 1519.54 C 862.229 1527.57 890.659 1541.16 905.07 1548.99 L 1024.14 1614.3 L 1142.1 1549.25 C 1150.9 1544.4 1188.83 1522.68 1195.88 1520.1 L 1197.23 1519.5 C 1210.75 1530.24 1223.05 1544.35 1235.65 1555.81 C 1251.86 1570.55 1267.24 1585.4 1282.53 1601.11 C 1286.43 1605.11 1297.01 1615.26 1299.76 1619.2 C 1246.97 1659.79 1190.29 1700.21 1136.56 1740.05 L 1074.87 1785.31 C 1062.54 1794.47 1046.04 1807.64 1033.52 1815.49 C 1030.25 1817.82 1026.89 1819.63 1023.41 1821.61 C 994.395 1802.68 962.193 1777.2 933.86 1756.54 L 749.061 1620.35 C 751.672 1611.6 837.878 1531.52 850.341 1519.54 z"/>
<path transform="translate(0,0)" fill="rgb(117,67,45)" d="M 1197.23 1519.5 C 1210.75 1530.24 1223.05 1544.35 1235.65 1555.81 C 1251.86 1570.55 1267.24 1585.4 1282.53 1601.11 C 1286.43 1605.11 1297.01 1615.26 1299.76 1619.2 C 1246.97 1659.79 1190.29 1700.21 1136.56 1740.05 L 1074.87 1785.31 C 1062.54 1794.47 1046.04 1807.64 1033.52 1815.49 C 1032.13 1814.62 1032.83 1815.21 1031.57 1813.53 C 1032.13 1805.21 1063.18 1754.07 1069.42 1743.23 L 1154.31 1594.71 L 1180.06 1548.93 C 1184.9 1540.36 1192.04 1528.59 1195.88 1520.1 L 1197.23 1519.5 z"/>
<path transform="translate(0,0)" fill="rgb(86,47,34)" d="M 743.764 1616.73 C 744.079 1606.36 725.886 1560.42 721.078 1547.23 L 671.852 1410.81 C 668.914 1402.66 646.572 1344.82 648.221 1340.02 C 659.123 1339.74 680.963 1346.8 692.171 1349.3 C 710.034 1353.29 728.5 1358.36 746.478 1362.37 C 770.046 1367.62 793.199 1379.66 815.398 1389.51 C 850.402 1405.36 885.528 1420.93 920.772 1436.24 C 901.089 1457.47 883.214 1480.69 864.264 1502.57 C 859.551 1508.01 854.596 1513.77 850.341 1519.54 C 837.878 1531.52 751.672 1611.6 749.061 1620.35 L 743.764 1616.73 z"/>
<path transform="translate(0,0)" fill="rgb(5,4,3)" d="M 1024.87 1259.6 C 1034.51 1255.22 1046.72 1248.19 1056.69 1243.22 C 1082.29 1230.45 1104.98 1220.29 1128.31 1203.27 C 1137.63 1228.17 1150.93 1256.34 1161.27 1281.38 C 1168.18 1298.11 1179.35 1327.93 1187.03 1342.58 L 1185.5 1343.05 L 1182.63 1341.31 C 1130.8 1338.23 1077.71 1330.03 1025.81 1326.91 C 1011.66 1326.06 984.26 1330.18 969.223 1331.66 L 867.759 1341.54 C 865.8 1342.31 865.388 1342.57 863.348 1343.01 L 861.859 1342.82 C 874.068 1309.5 889.277 1276.28 902.823 1243.4 C 908.403 1229.86 914.827 1216.57 919.839 1202.8 C 941.18 1220.39 995.331 1243.98 1023.18 1260.03 L 1024.87 1259.6 z"/>
<path transform="translate(0,0)" fill="rgb(184,117,71)" d="M 919.839 1202.8 C 941.18 1220.39 995.331 1243.98 1023.18 1260.03 C 1003.55 1273.13 869.788 1334.16 866.477 1340.74 L 867.759 1341.54 C 865.8 1342.31 865.388 1342.57 863.348 1343.01 L 861.859 1342.82 C 874.068 1309.5 889.277 1276.28 902.823 1243.4 C 908.403 1229.86 914.827 1216.57 919.839 1202.8 z"/>
<path transform="translate(0,0)" fill="rgb(184,117,71)" d="M 1024.87 1259.6 C 1034.51 1255.22 1046.72 1248.19 1056.69 1243.22 C 1082.29 1230.45 1104.98 1220.29 1128.31 1203.27 C 1137.63 1228.17 1150.93 1256.34 1161.27 1281.38 C 1168.18 1298.11 1179.35 1327.93 1187.03 1342.58 L 1185.5 1343.05 L 1182.63 1341.31 C 1179.32 1335.63 1043.78 1270.96 1024.87 1259.6 z"/>
<path transform="translate(0,0)" fill="rgb(184,117,71)" d="M 867.759 1341.54 L 969.223 1331.66 C 984.26 1330.18 1011.66 1326.06 1025.81 1326.91 C 1077.71 1330.03 1130.8 1338.23 1182.63 1341.31 L 1185.5 1343.05 C 1152.52 1354.98 1119.19 1376.49 1086.22 1389.56 C 1069.45 1394.1 1040.99 1402.94 1023.93 1402.51 C 988.185 1401.61 950.909 1384.58 920.886 1369.83 C 901.9 1360.48 882.716 1351.54 863.348 1343.01 C 865.388 1342.57 865.8 1342.31 867.759 1341.54 z"/>
<path transform="translate(0,0)" fill="rgb(86,47,34)" d="M 485.401 225.85 C 492.501 226.501 635.274 272.086 643.851 277.018 C 653.717 289.25 665.002 306.339 674.119 319.59 L 703.054 397.947 L 699.966 400.377 C 678.172 419.671 655.293 438.193 633.259 457.283 C 608.121 479.063 583.386 501.38 558.057 522.914 C 556.968 523.705 554.375 525.371 553.778 526.335 C 523.742 543.986 493.723 564.04 464.13 582.717 L 461.144 585.979 L 458.961 585.242 C 442.176 596.885 422.162 607.212 404.736 618.097 C 398.996 621.682 384.881 629.658 380.489 633.787 C 377.316 626.753 373.77 619.502 370.256 612.615 C 349.45 571.836 330.658 529.651 309.754 488.979 C 305.866 479.679 311.493 451.747 313.131 440.591 C 319.067 400.159 324.867 359.701 330.427 319.215 C 330.877 315.938 330.917 315.195 333.104 313.003 C 383.701 282.729 432.523 255.74 483.967 227.146 L 485.401 225.85 z"/>
<path transform="translate(0,0)" fill="rgb(66,33,21)" d="M 418.577 327.273 C 426.866 335.219 466.13 362.158 477.347 370.085 L 565.919 433.219 C 583.448 445.819 600.146 457.144 617.302 470.562 C 613.312 459.049 606.384 443.934 601.62 432.33 C 595.02 416.256 587.999 398 580.376 382.593 C 598.063 385.239 690.108 395.992 699.966 400.377 C 678.172 419.671 655.293 438.193 633.259 457.283 C 608.121 479.063 583.386 501.38 558.057 522.914 C 556.968 523.705 554.375 525.371 553.778 526.335 C 523.742 543.986 493.723 564.04 464.13 582.717 C 459.375 576.746 423.086 353.862 418.577 327.273 z"/>
<path transform="translate(0,0)" fill="rgb(184,117,71)" d="M 485.401 225.85 C 492.501 226.501 635.274 272.086 643.851 277.018 C 639.685 287.877 583.787 379.754 579.983 382.185 L 578.186 381.495 C 566.007 378.228 551.905 372.795 539.626 368.95 C 499.596 356.417 459.174 340.476 419.158 328.577 C 408.266 327.582 337.896 316.005 333.104 313.003 C 383.701 282.729 432.523 255.74 483.967 227.146 L 485.401 225.85 z"/>
<path transform="translate(0,0)" fill="rgb(117,67,45)" d="M 485.401 225.85 C 492.501 226.501 635.274 272.086 643.851 277.018 C 639.685 287.877 583.787 379.754 579.983 382.185 L 578.186 381.495 L 578.055 380.267 L 578.7 380.506 C 576.826 374.028 544.988 323.071 539.95 315.136 C 533.847 305.525 490.066 229.073 485.401 225.85 z"/>
<path transform="translate(0,0)" fill="rgb(117,67,45)" d="M 333.104 313.003 C 383.701 282.729 432.523 255.74 483.967 227.146 C 480.361 235.886 468.126 253.782 462.661 261.989 L 432.061 308.038 C 429.573 311.76 420.011 325.075 419.158 328.577 C 408.266 327.582 337.896 316.005 333.104 313.003 z"/>
<path transform="translate(0,0)" fill="rgb(66,33,21)" d="M 309.754 488.979 C 319.695 488.465 344.526 506.676 353.853 512.732 C 374.002 525.723 394.076 538.83 414.073 552.054 L 447.273 573.21 C 451.017 575.597 460.17 579.611 460.421 583.807 L 458.961 585.242 C 442.176 596.885 422.162 607.212 404.736 618.097 C 398.996 621.682 384.881 629.658 380.489 633.787 C 377.316 626.753 373.77 619.502 370.256 612.615 C 349.45 571.836 330.658 529.651 309.754 488.979 z"/>
<path transform="translate(0,0)" fill="rgb(66,33,21)" d="M 1404.33 276.799 C 1422 269.555 1454.4 260.686 1472.65 254.213 C 1484.21 250.111 1555.84 225.698 1562.63 226.742 L 1563.81 226.878 C 1600.64 245.414 1639.11 269.715 1675.45 289.882 C 1689.08 297.444 1702.67 306.46 1716.49 313.699 C 1718.29 319.714 1718.22 325.574 1719.08 331.924 L 1724.59 370.488 C 1729.88 406.689 1735.79 443.205 1740.4 479.546 C 1740.79 482.63 1739.83 484.925 1738.67 487.766 L 1689.05 589.532 C 1682.09 603.747 1674.91 620.134 1667.72 633.935 C 1658.55 626.794 1640.03 615.972 1629.69 609.657 C 1617.44 602.173 1600.21 590.887 1587.75 584.769 L 1586.85 585.161 L 1584.86 582.86 C 1577.36 577.611 1567.07 571.635 1559.14 566.555 C 1537.92 552.935 1516.63 539.447 1495.24 526.09 L 1491.13 523.356 C 1475.74 511.706 1452.63 490.101 1437.61 477.046 L 1348.09 400.391 L 1345.3 398.272 C 1352.86 375.026 1367.83 341.306 1373.35 319.221 C 1378.43 314.895 1396.57 285.577 1404.33 276.799 z"/>
<path transform="translate(0,0)" fill="rgb(86,47,34)" d="M 1716.49 313.699 C 1718.29 319.714 1718.22 325.574 1719.08 331.924 L 1724.59 370.488 C 1729.88 406.689 1735.79 443.205 1740.4 479.546 C 1740.79 482.63 1739.83 484.925 1738.67 487.766 L 1689.05 589.532 C 1682.09 603.747 1674.91 620.134 1667.72 633.935 C 1658.55 626.794 1640.03 615.972 1629.69 609.657 C 1617.44 602.173 1600.21 590.887 1587.75 584.769 L 1586.85 585.161 L 1584.86 582.86 C 1586.98 578.083 1592.16 543.421 1593.55 535.27 L 1618.5 396.47 C 1621.97 376.681 1625.74 356.351 1628.55 336.448 C 1629.08 332.679 1628.99 332.002 1627.18 329.784 L 1628.94 328.817 C 1651.15 325.643 1673.15 321.811 1695.28 318.179 C 1702.25 317.035 1709.94 316.303 1716.49 313.699 z"/>
<path transform="translate(0,0)" fill="rgb(66,33,21)" d="M 1587.75 584.769 L 1588.88 581.875 C 1593.04 578.067 1598.06 575.003 1602.85 571.998 C 1645.13 545.474 1686.3 517.072 1729.02 491.294 C 1732.05 489.467 1735.21 488.459 1738.67 487.766 L 1689.05 589.532 C 1682.09 603.747 1674.91 620.134 1667.72 633.935 C 1658.55 626.794 1640.03 615.972 1629.69 609.657 C 1617.44 602.173 1600.21 590.887 1587.75 584.769 z"/>
<path transform="translate(0,0)" fill="rgb(184,117,71)" d="M 1404.33 276.799 C 1422 269.555 1454.4 260.686 1472.65 254.213 C 1484.21 250.111 1555.84 225.698 1562.63 226.742 L 1563.81 226.878 C 1600.64 245.414 1639.11 269.715 1675.45 289.882 C 1689.08 297.444 1702.67 306.46 1716.49 313.699 C 1709.94 316.303 1702.25 317.035 1695.28 318.179 C 1673.15 321.811 1651.15 325.643 1628.94 328.817 L 1627.18 329.784 L 1626.33 330.013 C 1585.43 341.345 1542.79 358.942 1501.78 371.217 C 1490.63 374.556 1478.98 379.409 1467.78 382.345 C 1461.04 375.512 1407.96 286.021 1404.33 276.799 z"/>
<path transform="translate(0,0)" fill="rgb(117,67,45)" d="M 1404.33 276.799 C 1422 269.555 1454.4 260.686 1472.65 254.213 C 1484.21 250.111 1555.84 225.698 1562.63 226.742 C 1557.91 229.108 1480.17 362.222 1467.78 382.345 C 1461.04 375.512 1407.96 286.021 1404.33 276.799 z"/>
<path transform="translate(0,0)" fill="rgb(117,67,45)" d="M 1563.81 226.878 C 1600.64 245.414 1639.11 269.715 1675.45 289.882 C 1689.08 297.444 1702.67 306.46 1716.49 313.699 C 1709.94 316.303 1702.25 317.035 1695.28 318.179 C 1673.15 321.811 1651.15 325.643 1628.94 328.817 C 1628.27 324.818 1619.24 312.881 1616.45 308.698 L 1588.91 267.022 C 1582.7 257.794 1567.56 236.185 1563.81 226.878 z"/>
<path transform="translate(0,0)" fill="rgb(86,47,34)" d="M 1373.35 319.221 C 1378.43 314.895 1396.57 285.577 1404.33 276.799 C 1407.96 286.021 1461.04 375.512 1467.78 382.345 C 1478.98 379.409 1490.63 374.556 1501.78 371.217 C 1542.79 358.942 1585.43 341.345 1626.33 330.013 C 1623.28 334.542 1590.51 356.303 1583.97 360.954 L 1506.29 416.286 C 1482.72 432.771 1452.19 453.525 1430.16 471.281 C 1436.45 454.769 1444.34 437.719 1451.28 421.352 C 1456.09 410.014 1462.42 392.759 1468.28 382.404 C 1452.18 385.842 1352.89 395.569 1348.09 400.391 L 1345.3 398.272 C 1352.86 375.026 1367.83 341.306 1373.35 319.221 z"/>
<path transform="translate(0,0)" fill="rgb(117,67,45)" d="M 1587.75 584.769 C 1600.21 590.887 1617.44 602.173 1629.69 609.657 C 1640.03 615.972 1658.55 626.794 1667.72 633.935 C 1671.32 646.165 1679.55 660.718 1684.54 672.948 C 1701.17 713.718 1720.75 753.345 1738.44 793.65 C 1743.69 805.625 1746.89 819.677 1751.64 831.914 C 1770.72 883.777 1786.9 940.848 1806.69 992.223 C 1806.45 992.409 1806.24 992.658 1805.96 992.781 C 1800.98 994.94 1681.16 917.844 1664.61 911.612 L 1663.7 910.958 C 1667.08 908.447 1697.86 786.941 1703.74 771.119 C 1693.04 753.092 1679.39 732.759 1668 714.803 C 1640.4 671.936 1613.34 628.718 1586.85 585.161 L 1587.75 584.769 z"/>
</svg>